<?xml version="1.0" encoding="iso-8859-1"?>
<!-- Uploaded to: SVG Repo, www.svgrepo.com, Generator: SVG Repo Mixer Tools -->
<svg fill="#000000" height="800px" width="800px" version="1.1" id="Layer_1" xmlns="http://www.w3.org/2000/svg" xmlns:xlink="http://www.w3.org/1999/xlink" 
	 viewBox="0 0 511.999 511.999" xml:space="preserve">
<g>
	<g>
		<g>
			<path d="M501.333,63.814H10.667C4.776,63.814,0,68.589,0,74.481v319.998c0,5.89,4.776,10.667,10.667,10.667h77.524
				l-15.607,27.036c-2.946,5.102-1.198,11.625,3.904,14.572c1.679,0.969,3.513,1.432,5.323,1.432c3.687,0,7.272-1.915,9.249-5.336
				l21.766-37.703h286.348l21.768,37.703c1.976,3.421,5.561,5.336,9.249,5.336c1.808,0,3.644-0.463,5.323-1.432
				c5.102-2.946,6.851-9.469,3.904-14.572l-15.61-27.036h77.523c5.891,0,10.667-4.778,10.667-10.667V74.481
				C512,68.589,507.223,63.814,501.333,63.814z M490.665,383.812H21.335V85.148h469.33V383.812z"/>
			<path d="M53.335,138.481h0.256c5.891,0,10.667-4.777,10.667-10.667c0-5.891-4.777-10.667-10.667-10.667h-0.256
				c-5.892,0-10.667,4.777-10.667,10.667C42.668,133.704,47.443,138.481,53.335,138.481z"/>
			<path d="M53.335,181.149h0.256c5.891,0,10.667-4.778,10.667-10.667c0-5.892-4.777-10.669-10.667-10.669h-0.256
				c-5.892,0-10.667,4.776-10.667,10.669C42.668,176.372,47.443,181.149,53.335,181.149z"/>
			<path d="M53.335,223.814h0.256c5.891,0,10.667-4.778,10.667-10.667c0-5.892-4.777-10.667-10.667-10.667h-0.256
				c-5.892,0-10.667,4.776-10.667,10.667C42.668,219.037,47.443,223.814,53.335,223.814z"/>
			<path d="M53.335,266.478h0.256c5.891,0,10.667-4.778,10.667-10.667c0-5.892-4.777-10.667-10.667-10.667h-0.256
				c-5.892,0-10.667,4.776-10.667,10.667C42.668,261.701,47.443,266.478,53.335,266.478z"/>
			<path d="M53.335,309.143h0.256c5.891,0,10.667-4.777,10.667-10.667c0-5.892-4.777-10.667-10.667-10.667h-0.256
				c-5.892,0-10.667,4.776-10.667,10.667C42.668,304.366,47.443,309.143,53.335,309.143z"/>
			<path d="M53.335,351.813h0.256c5.891,0,10.667-4.777,10.667-10.667c0-5.892-4.777-10.667-10.667-10.667h-0.256
				c-5.892,0-10.667,4.776-10.667,10.667C42.668,347.036,47.443,351.813,53.335,351.813z"/>
			<path d="M84.235,330.475c-5.892,0-10.667,4.776-10.667,10.667c0,5.889,4.776,10.667,10.667,10.667H96
				c0,5.889,4.776,10.667,10.667,10.667h298.663c5.891,0,10.667-4.778,10.667-10.667h11.769c5.892,0,10.667-4.778,10.667-10.667
				c0-5.892-4.776-10.667-10.667-10.667h-11.769V309.14h11.769c5.892,0,10.667-4.778,10.667-10.667
				c0-5.892-4.776-10.667-10.667-10.667h-11.769v-21.331h11.769c5.892,0,10.667-4.778,10.667-10.667
				c0-5.892-4.776-10.667-10.667-10.667h-11.769v-21.328h11.769c5.892,0,10.667-4.778,10.667-10.667
				c0-5.892-4.776-10.667-10.667-10.667h-11.769v-21.331h11.769c5.892,0,10.667-4.778,10.667-10.667
				c0-5.892-4.776-10.669-10.667-10.669h-11.769v-21.328h11.769c5.892,0,10.667-4.777,10.667-10.667
				c0-5.891-4.776-10.667-10.667-10.667h-11.769v-0.002c0-5.891-4.777-10.667-10.667-10.667H106.668
				c-5.892,0-10.667,4.777-10.667,10.667v0.002H84.235c-5.892,0-10.667,4.777-10.667,10.667c0,5.891,4.776,10.667,10.667,10.667H96
				v21.328H84.235c-5.892,0-10.667,4.776-10.667,10.669c0,5.889,4.776,10.667,10.667,10.667H96v21.331H84.235
				c-5.892,0-10.667,4.776-10.667,10.667c0,5.889,4.776,10.667,10.667,10.667H96v21.328H84.235c-5.892,0-10.667,4.776-10.667,10.667
				c0,5.89,4.776,10.667,10.667,10.667H96v21.331H84.235c-5.892,0-10.667,4.776-10.667,10.667c0,5.889,4.776,10.667,10.667,10.667
				H96v21.335H84.235z M117.335,127.812h277.328v213.33H117.335V127.812z"/>
			<path d="M458.411,138.481h0.254c5.891,0,10.667-4.777,10.667-10.667c0-5.891-4.777-10.667-10.667-10.667h-0.254
				c-5.892,0-10.667,4.777-10.667,10.667C447.744,133.704,452.52,138.481,458.411,138.481z"/>
			<path d="M458.411,181.149h0.254c5.891,0,10.667-4.778,10.667-10.667c0-5.892-4.777-10.669-10.667-10.669h-0.254
				c-5.892,0-10.667,4.776-10.667,10.669C447.744,176.372,452.52,181.149,458.411,181.149z"/>
			<path d="M458.411,223.814h0.254c5.891,0,10.667-4.778,10.667-10.667c0-5.892-4.777-10.667-10.667-10.667h-0.254
				c-5.892,0-10.667,4.776-10.667,10.667C447.744,219.037,452.52,223.814,458.411,223.814z"/>
			<path d="M458.411,266.478h0.254c5.891,0,10.667-4.778,10.667-10.667c0-5.892-4.777-10.667-10.667-10.667h-0.254
				c-5.892,0-10.667,4.776-10.667,10.667C447.744,261.701,452.52,266.478,458.411,266.478z"/>
			<path d="M458.411,309.143h0.254c5.891,0,10.667-4.777,10.667-10.667c0-5.892-4.777-10.667-10.667-10.667h-0.254
				c-5.892,0-10.667,4.776-10.667,10.667C447.744,304.366,452.52,309.143,458.411,309.143z"/>
			<path d="M458.411,351.813h0.254c5.891,0,10.667-4.777,10.667-10.667c0-5.892-4.777-10.667-10.667-10.667h-0.254
				c-5.892,0-10.667,4.776-10.667,10.667C447.744,347.036,452.52,351.813,458.411,351.813z"/>
			<path d="M149.329,258.059c5.892,0,10.667-4.778,10.667-10.667v-0.256c0-5.892-4.776-10.667-10.667-10.667
				c-5.891,0-10.667,4.776-10.667,10.667v0.256C138.662,253.281,143.438,258.059,149.329,258.059z"/>
			<path d="M149.334,267.365c-5.891,0-10.667,4.776-10.667,10.667v31.11c0,5.891,4.777,10.667,10.667,10.667
				c5.892,0,10.667-4.777,10.667-10.667v-31.11C160.002,272.141,155.226,267.365,149.334,267.365z"/>
		</g>
	</g>
</g>
</svg>